<svg width="66" height="66" viewBox="0 0 66 66" fill="none" xmlns="http://www.w3.org/2000/svg">
<rect x="1" y="1" width="64" height="64" rx="10" fill="black" stroke="black"/>
<path d="M16 15.5C16 10.8056 19.8056 7 24.5 7H33V24H24.5C19.8056 24 16 20.1944 16 15.5Z" fill="#E05A33"/>
<path d="M16 32.5C16 27.8056 19.8056 24 24.5 24H33V41H24.5C19.8056 41 16 37.1944 16 32.5Z" fill="#985DF6"/>
<path d="M16 49.5C16 44.8056 19.8056 41 24.5 41H33V49.5C33 54.1944 29.1944 58 24.5 58C19.8056 58 16 54.1944 16 49.5Z" fill="#5FCC89"/>
<path d="M33 7H41.5C46.1944 7 50 10.8056 50 15.5C50 20.1944 46.1944 24 41.5 24H33V7Z" fill="#EE7A69"/>
<rect x="33" y="24" width="17" height="17" rx="8.5" fill="#58B9F8"/>
</svg>
