<svg width="39" height="39" viewBox="0 0 39 39" fill="none" xmlns="http://www.w3.org/2000/svg">
<path d="M25.1264 7.55556C25.5246 8.74629 25.1264 10.7624 25.1264 10.7624C25.1264 10.7624 26.7241 9.44058 27.9762 9.15896C30.6079 8.5671 32.9743 9.67885 34.2477 12C35.4652 14.2192 35.2092 16.5554 33.4489 18.3966C32.5729 19.3129 30.5991 20 30.5991 20C30.5991 20 32.6082 20.6562 33.4489 21.6034C35.1257 23.4928 34.8055 25.8805 33.4489 28C32.1672 30.0022 30.3561 31.2764 27.9762 30.841C26.7132 30.61 25.1264 29.2376 25.1264 29.2376C25.1264 29.2376 25.5246 31.2537 25.1264 32.4444C24.3306 34.8245 22.2224 36 19.6537 36C17.0851 36 14.9768 34.8245 14.181 32.4444C13.7829 31.2537 14.181 29.2376 14.181 29.2376C14.181 29.2376 12.5943 30.6099 11.3313 30.841C8.95132 31.2764 7.14019 30.0023 5.85854 28C4.50187 25.8805 4.1818 23.4928 5.85861 21.6034C6.69923 20.6562 8.70832 20 8.70832 20C8.70832 20 6.756 19.2929 5.85854 18.3966C3.80804 16.3486 3.32637 13.4204 5.05999 11.1111C6.57801 9.08898 8.84251 8.5303 11.3312 9.15899C12.5752 9.47323 14.181 10.7624 14.181 10.7624C14.181 10.7624 13.7829 8.7463 14.181 7.55556C14.9768 5.17551 17.0851 4 19.6537 4C22.2224 4 24.3306 5.17551 25.1264 7.55556Z" stroke="#0E1C21" stroke-width="3"/>
</svg>
