<svg width="39" height="39" viewBox="0 0 39 39" fill="none" xmlns="http://www.w3.org/2000/svg">
<path d="M19.8964 12.2222L18.5584 12.9003L20.0927 15.9279L21.2986 12.7551L19.8964 12.2222ZM19.8964 34L18.8456 35.0704C19.1303 35.3499 19.5145 35.5044 19.9134 35.4999C20.3123 35.4954 20.6929 35.3322 20.9712 35.0464L19.8964 34ZM19.8964 12.2222C21.2344 11.5442 21.2342 11.5438 21.234 11.5433C21.2339 11.5431 21.2337 11.5427 21.2335 11.5423C21.2331 11.5416 21.2327 11.5408 21.2322 11.5399C21.2313 11.538 21.2302 11.5358 21.2289 11.5333C21.2262 11.5281 21.2228 11.5215 21.2186 11.5134C21.2102 11.4972 21.1987 11.4752 21.1841 11.4477C21.1549 11.3929 21.1133 11.3162 21.0599 11.2209C20.953 11.0304 20.7977 10.7642 20.597 10.4473C20.1975 9.81664 19.6081 8.96969 18.8509 8.11585C17.3897 6.4682 15.0397 4.5 12.0135 4.5V7.5C13.717 7.5 15.3085 8.64291 16.6063 10.1064C17.2286 10.8081 17.7231 11.5167 18.0627 12.0527C18.2315 12.3191 18.3595 12.539 18.4435 12.6888C18.4855 12.7636 18.5163 12.8207 18.5356 12.857C18.5453 12.8751 18.5521 12.888 18.5559 12.8954C18.5578 12.8991 18.5589 12.9013 18.5594 12.9022C18.5596 12.9026 18.5596 12.9026 18.5595 12.9023C18.5594 12.9022 18.5593 12.9019 18.5591 12.9016C18.559 12.9014 18.5588 12.9011 18.5588 12.901C18.5586 12.9006 18.5584 12.9003 19.8964 12.2222ZM12.0135 4.5C6.13237 4.5 1.56751 11.0556 4.32896 17.4812L7.0852 16.2966C5.11561 11.7136 8.43498 7.5 12.0135 7.5V4.5ZM4.32896 17.4812C4.99974 19.042 6.28254 20.9247 7.73586 22.8027C9.20973 24.7071 10.9376 26.7056 12.5771 28.5156C14.2188 30.328 15.7841 31.9648 16.9383 33.1479C17.5157 33.7398 17.9911 34.219 18.3228 34.5509C18.4886 34.7168 18.6186 34.846 18.7074 34.934C18.7519 34.978 18.786 35.0117 18.8093 35.0347C18.8209 35.0461 18.8298 35.0549 18.8359 35.0609C18.8389 35.0639 18.8413 35.0662 18.8429 35.0678C18.8437 35.0686 18.8443 35.0692 18.8448 35.0696C18.845 35.0698 18.8452 35.0701 18.8453 35.0702C18.8455 35.0703 18.8456 35.0704 19.8964 34C20.9472 32.9296 20.9472 32.9296 20.9472 32.9296C20.9472 32.9295 20.9471 32.9294 20.947 32.9293C20.9467 32.9291 20.9463 32.9286 20.9456 32.928C20.9444 32.9268 20.9424 32.9249 20.9398 32.9223C20.9345 32.9171 20.9264 32.9091 20.9156 32.8984C20.8939 32.8771 20.8614 32.845 20.8187 32.8026C20.7332 32.7179 20.6068 32.5924 20.4447 32.4302C20.1205 32.1058 19.6537 31.6352 19.0857 31.053C17.949 29.8878 16.4105 28.2789 14.8005 26.5015C13.1884 24.7218 11.5168 22.7865 10.1084 20.9666C8.67943 19.1201 7.59719 17.4879 7.0852 16.2966L4.32896 17.4812ZM19.8964 34C20.9712 35.0464 20.9713 35.0463 20.9714 35.0461C20.9715 35.046 20.9717 35.0458 20.9719 35.0456C20.9724 35.0452 20.973 35.0445 20.9737 35.0437C20.9753 35.0422 20.9775 35.0399 20.9804 35.0368C20.9863 35.0308 20.9949 35.022 21.0062 35.0104C21.0287 34.9872 21.0618 34.9529 21.105 34.9082C21.1915 34.8189 21.318 34.6876 21.4797 34.519C21.8031 34.1818 22.2673 33.6951 22.8322 33.0948C23.9616 31.8949 25.4965 30.2386 27.1164 28.415C30.3003 24.8306 33.9921 20.4044 35.4249 17.5646L32.7465 16.2132C31.523 18.6384 28.1201 22.7677 24.8735 26.4226C23.2781 28.2187 21.7637 29.853 20.6477 31.0387C20.0899 31.6313 19.6323 32.1112 19.3146 32.4424C19.1558 32.608 19.032 32.7364 18.9481 32.8231C18.9062 32.8665 18.8743 32.8994 18.853 32.9213C18.8424 32.9323 18.8344 32.9405 18.8291 32.9459C18.8265 32.9487 18.8246 32.9507 18.8233 32.9519C18.8227 32.9526 18.8222 32.953 18.822 32.9533C18.8218 32.9535 18.8217 32.9536 18.8217 32.9536C18.8216 32.9537 18.8216 32.9536 19.8964 34ZM35.4249 17.5646C38.553 11.3648 34.4845 4.5 27.7794 4.5V7.5C32.1104 7.5 34.9313 11.8831 32.7465 16.2132L35.4249 17.5646ZM27.7794 4.5C24.3956 4.5 22.0413 6.42032 20.6107 8.15758C19.8893 9.03363 19.3674 9.9024 19.0256 10.5498C18.8538 10.8752 18.7251 11.1493 18.6376 11.3468C18.5937 11.4457 18.56 11.5257 18.5363 11.5838C18.5244 11.6128 18.515 11.6363 18.508 11.6541C18.5045 11.6629 18.5016 11.6703 18.4993 11.6762C18.4982 11.6792 18.4972 11.6817 18.4963 11.6839C18.4959 11.685 18.4955 11.686 18.4952 11.6869C18.495 11.6873 18.4948 11.6879 18.4947 11.6882C18.4945 11.6888 18.4943 11.6893 19.8964 12.2222C21.2986 12.7551 21.2984 12.7556 21.2982 12.7561C21.2981 12.7563 21.298 12.7567 21.2979 12.757C21.2977 12.7575 21.2975 12.7579 21.2974 12.7583C21.2971 12.759 21.297 12.7593 21.297 12.7592C21.297 12.7591 21.2976 12.7576 21.2988 12.7547C21.3011 12.7489 21.3056 12.7375 21.3124 12.7209C21.3259 12.6878 21.3484 12.6342 21.3801 12.5629C21.4434 12.4201 21.5425 12.2081 21.6787 11.9502C21.9528 11.4309 22.367 10.7442 22.9265 10.0646C24.0579 8.69079 25.6451 7.5 27.7794 7.5V4.5Z" fill="#0E1C21"/>
</svg>
