<svg width="39" height="39" viewBox="0 0 39 39" fill="none" xmlns="http://www.w3.org/2000/svg">
<path d="M18.5494 4.90982C18.8497 3.99052 20.1503 3.99052 20.4506 4.90982L23.642 14.6793C23.7764 15.0906 24.1599 15.3688 24.5926 15.3688H34.9089C35.8789 15.3688 36.2808 16.6112 35.4946 17.1793L27.1578 23.2038C26.8054 23.4584 26.658 23.9116 26.793 24.3248L29.9795 34.0793C30.2802 34.9997 29.228 35.7674 28.4432 35.2003L20.0857 29.1609C19.7361 28.9082 19.2639 28.9082 18.9143 29.1609L10.5568 35.2003C9.772 35.7674 8.71983 34.9997 9.02049 34.0793L12.207 24.3248C12.342 23.9116 12.1946 23.4584 11.8422 23.2038L3.50543 17.1793C2.7192 16.6112 3.12111 15.3688 4.09114 15.3688H14.4074C14.8401 15.3688 15.2236 15.0906 15.358 14.6793L18.5494 4.90982Z" stroke="#0E1C21" stroke-width="3"/>
</svg>
